<svg width="20" height="21" viewBox="0 0 20 21" fill="none" xmlns="http://www.w3.org/2000/svg">
<path d="M18 20.22C18.8203 20.22 19.5 19.5403 19.5 18.72C19.5 18.3216 19.336 17.9349 19.0664 17.6653L15.0469 13.6458C15.9961 12.2747 16.5 10.6341 16.5 8.97001C16.5 4.41141 12.8086 0.720001 8.25001 0.720001C3.69141 0.720001 0 4.41141 0 8.97001C0 13.5286 3.69141 17.22 8.25001 17.22C9.91407 17.22 11.5547 16.7161 12.9258 15.7669L16.9453 19.7747C17.2149 20.056 17.6016 20.22 18 20.22ZM8.25001 14.22C5.35547 14.22 3 11.8645 3 8.97001C3 6.07548 5.35547 3.72 8.25001 3.72C11.1445 3.72 13.5 6.07548 13.5 8.97001C13.5 11.8645 11.1445 14.22 8.25001 14.22Z" fill="black"/>
</svg>
