<svg width="55" height="31" viewBox="0 0 55 31" fill="none" xmlns="http://www.w3.org/2000/svg">
<path d="M34.3455 17.0337C36.0541 17.0337 37.6927 16.355 38.9009 15.1468C40.1091 13.9386 40.7878 12.2999 40.7878 10.5912C40.7878 8.88256 40.1091 7.24389 38.9009 6.03569C37.6927 4.82748 36.0541 4.14872 34.3455 4.14872C32.6368 4.14872 30.9982 4.82748 29.79 6.03569C28.5819 7.24389 27.9031 8.88256 27.9031 10.5912C27.9031 12.2999 28.5819 13.9386 29.79 15.1468C30.9982 16.355 32.6368 17.0337 34.3455 17.0337ZM34.358 0.719971C36.1608 0.720289 37.9291 1.21505 39.4703 2.15041C41.0115 3.08578 42.2668 4.42593 43.0994 6.02505C43.932 7.62417 44.3101 9.42101 44.1925 11.2201C44.075 13.0191 43.4663 14.7515 42.4328 16.2287L54.5 28.295L52.0751 30.72L40.0091 18.6537C38.7406 19.5415 37.2808 20.1179 35.748 20.3364C34.2152 20.5548 32.6525 20.4091 31.1865 19.9111C29.7205 19.413 28.3924 18.5766 27.3099 17.4697C26.2274 16.3627 25.4208 15.0163 24.9555 13.5395C24.4903 12.0628 24.3795 10.4972 24.632 8.96959C24.8846 7.442 25.4934 5.99539 26.4092 4.74695C27.3249 3.4985 28.5219 2.48335 29.9031 1.78372C31.2843 1.08409 32.8097 0.719665 34.358 0.719971Z" fill="white"/>
</svg>
