<svg width="23" height="21" viewBox="0 0 23 21" fill="none" xmlns="http://www.w3.org/2000/svg">
<path d="M18.9643 20.72C19.5633 20.72 20.0776 20.5052 20.5073 20.0755C20.937 19.6458 21.1518 19.1315 21.1518 18.5325C21.1518 17.621 20.7351 16.97 19.9018 16.5794L20.1362 15.6028C20.1883 15.3164 20.1231 15.0559 19.9409 14.8216C19.7586 14.5872 19.5242 14.47 19.2377 14.47H8.72992L8.49554 13.22H19.9409C20.4356 13.22 20.7351 12.9726 20.8393 12.4778L22.6752 4.35281C22.7534 4.06636 22.7013 3.80594 22.519 3.57156C22.3367 3.33719 22.0893 3.22 21.7768 3.22H6.42523L6.07367 1.46219C6.02159 1.25386 5.91091 1.07807 5.74164 0.934845C5.57237 0.791616 5.38357 0.720001 5.17523 0.720001H1.15179C0.891378 0.720001 0.670024 0.811147 0.487732 0.993439C0.30544 1.17573 0.214294 1.39708 0.214294 1.6575V2.2825C0.214294 2.54292 0.30544 2.76427 0.487732 2.94656C0.670024 3.12886 0.891378 3.22 1.15179 3.22H3.88617L6.62054 16.6184C5.89138 17.0611 5.52679 17.6992 5.52679 18.5325C5.52679 19.1315 5.74164 19.6458 6.17133 20.0755C6.60101 20.5052 7.11534 20.72 7.71429 20.72C8.31325 20.72 8.82758 20.5052 9.25726 20.0755C9.68695 19.6458 9.90179 19.1315 9.90179 18.5325C9.90179 17.9075 9.68044 17.3867 9.23773 16.97H17.4409C16.9981 17.3867 16.7768 17.9075 16.7768 18.5325C16.7768 19.1315 16.9916 19.6458 17.4213 20.0755C17.851 20.5052 18.3653 20.72 18.9643 20.72Z" fill="black"/>
</svg>
