<svg width="22" height="22" viewBox="0 0 22 22" fill="none" xmlns="http://www.w3.org/2000/svg">
<path d="M6.57115 18.3861C8.39821 18.3861 10.0687 18.0337 11.5825 17.329C13.0964 16.6242 14.3296 15.7042 15.2823 14.5688C16.235 13.4334 16.9723 12.1806 17.4944 10.8103C18.0164 9.43999 18.2774 8.06317 18.2774 6.67982C18.2774 6.44491 18.2643 6.27526 18.2382 6.17085C19.0474 5.57053 19.739 4.85276 20.3132 4.01753C19.5302 4.35684 18.7472 4.5787 17.9642 4.68311C18.8516 4.13499 19.4519 3.37806 19.7651 2.41233C18.956 2.88215 18.0816 3.20841 17.142 3.39111C16.3329 2.52979 15.328 2.09912 14.1273 2.09912C13.005 2.09912 12.0458 2.50368 11.2497 3.31281C10.4536 4.12194 10.0556 5.08767 10.0556 6.21001C10.0556 6.52322 10.0817 6.83643 10.1339 7.14964C8.46346 7.07133 6.89088 6.65372 5.41618 5.8968C3.94149 5.13987 2.69517 4.12194 1.67724 2.843C1.28572 3.49552 1.08997 4.18719 1.08997 4.91801C1.08997 6.37966 1.70334 7.5281 2.93008 8.36333C2.27756 8.33722 1.66419 8.15452 1.08997 7.81521V7.89351C1.08997 8.54603 1.23352 9.15288 1.52063 9.71404C1.80774 10.2752 2.19925 10.7516 2.69517 11.1431C3.19109 11.5346 3.75226 11.7956 4.37868 11.9261C4.01326 12.0044 3.64785 12.0435 3.28244 12.0435C3.04753 12.0435 2.79957 12.0305 2.53857 12.0044C2.79957 12.8135 3.27591 13.4856 3.96759 14.0207C4.65926 14.5558 5.46186 14.8233 6.37539 14.8233C4.86154 15.9978 3.15194 16.5851 1.24657 16.5851C0.881162 16.5851 0.554901 16.572 0.267792 16.5459C2.17315 17.7727 4.27427 18.3861 6.57115 18.3861Z" fill="white"/>
</svg>
