<svg width="22" height="22" viewBox="0 0 22 22" fill="none" xmlns="http://www.w3.org/2000/svg">
<path d="M9.80685 20.0086V13.4625H7.09367V10.3617H9.80685V7.99307C9.80685 7.13174 9.97912 6.38525 10.3237 5.75361C10.6682 5.12197 11.1347 4.64824 11.7233 4.33242C12.3119 4.0166 13.0225 3.85869 13.8551 3.85869C14.6303 3.85869 15.4198 3.93047 16.2237 4.07402V6.70107H14.8887C13.7403 6.70107 13.166 7.24658 13.166 8.3376V10.3617H16.1376L15.6639 13.4625H13.166V20.0086H19.0661C19.6404 20.0086 20.1284 19.8076 20.5304 19.4057C20.9323 19.0037 21.1333 18.5156 21.1333 17.9414V2.78203C21.1333 2.20781 20.9323 1.71973 20.5304 1.31777C20.1284 0.91582 19.6404 0.714844 19.0661 0.714844H3.90676C3.33254 0.714844 2.84445 0.91582 2.4425 1.31777C2.04055 1.71973 1.83957 2.20781 1.83957 2.78203V17.9414C1.83957 18.5156 2.04055 19.0037 2.4425 19.4057C2.84445 19.8076 3.33254 20.0086 3.90676 20.0086H9.80685Z" fill="white"/>
</svg>
