<svg width="22" height="22" viewBox="0 0 22 22" fill="none" xmlns="http://www.w3.org/2000/svg">
<path d="M12.5503 17.7662C13.6488 17.7412 14.8597 17.6975 16.1829 17.6351C17.5061 17.5727 18.4048 17.4791 18.8792 17.3542C19.3286 17.2294 19.7156 17.0047 20.0401 16.6802C20.3647 16.3556 20.5894 15.9811 20.7142 15.5567C20.9888 14.4831 21.1261 12.8229 21.1261 10.576V10.2389C21.1261 9.98926 21.1199 9.67718 21.1074 9.30269C21.0949 8.9282 21.0762 8.5225 21.0512 8.0856C21.0263 7.64869 20.9826 7.20555 20.9202 6.75616C20.8578 6.30677 20.7891 5.93228 20.7142 5.63269C20.5894 5.1833 20.3647 4.79632 20.0401 4.47176C19.7156 4.14721 19.3286 3.92251 18.8792 3.79768C17.8306 3.52306 15.1717 3.38574 10.9025 3.38574H9.25479C8.15628 3.41071 6.94543 3.4544 5.62223 3.51681C4.29903 3.57923 3.40025 3.67285 2.9259 3.79768C2.47651 3.92251 2.08954 4.14721 1.76498 4.47176C1.44042 4.79632 1.21572 5.1833 1.09089 5.63269C0.816268 6.70622 0.678955 8.35398 0.678955 10.576V11.4747C0.703921 12.049 0.747612 12.7542 0.810027 13.5906C0.872442 14.427 0.966064 15.0823 1.09089 15.5567C1.34055 16.4804 1.95222 17.0796 2.9259 17.3542C3.97447 17.6289 6.63335 17.7662 10.9025 17.7662H12.5503ZM8.8054 13.6468V7.54259L14.1606 10.576L8.8054 13.6468Z" fill="white"/>
</svg>
