<svg width="22" height="22" viewBox="0 0 22 22" fill="none" xmlns="http://www.w3.org/2000/svg">
<path d="M10.9434 20.4987C12.7054 20.495 13.9672 20.4649 14.7288 20.4085C16.5723 20.348 18.0003 19.8116 19.0128 18.7992C20.0252 17.7867 20.5767 16.3587 20.6674 14.5152C20.6976 13.6992 20.7127 12.309 20.7127 10.3445C20.7127 8.38011 20.6976 6.9899 20.6674 6.1739C20.5767 4.33036 20.0252 2.90237 19.0128 1.88993C18.0003 0.877493 16.5723 0.325941 14.7288 0.235274C13.9128 0.205052 12.5226 0.189941 10.5581 0.189941H10.1729C8.4109 0.192023 7.14909 0.207067 6.3875 0.235274C4.54395 0.325941 3.12352 0.885048 2.12619 1.9126C1.12886 2.90992 0.584866 4.31525 0.4942 6.12857C0.433756 6.97479 0.403534 8.38011 0.403534 10.3445L0.403937 10.7298C0.407698 12.4918 0.437786 13.7536 0.4942 14.5152C0.4942 15.1196 0.547089 15.6485 0.652866 16.1018C0.758643 16.5552 0.93242 17.0236 1.1742 17.5072C1.41597 17.9907 1.7333 18.4138 2.12619 18.7765C3.12352 19.7738 4.54395 20.3178 6.3875 20.4085C7.20349 20.4689 8.59371 20.4992 10.5581 20.4992L10.9434 20.4987ZM12.9608 18.6858H8.13282C7.81549 18.6858 7.39238 18.6707 6.86349 18.6405C6.33461 18.6103 5.88128 18.5649 5.5035 18.5045C5.12573 18.4441 4.81595 18.3685 4.57418 18.2778C3.66751 17.9152 3.01774 17.2654 2.62485 16.3285C2.56441 16.117 2.50397 15.845 2.44352 15.5125C2.38308 15.1801 2.33774 14.8552 2.30752 14.5379C2.2773 14.2205 2.25463 13.8352 2.23952 13.3819C2.22441 12.9285 2.21686 12.5583 2.21686 12.2712V7.91923C2.21686 7.6019 2.23197 7.17879 2.26219 6.6499C2.29241 6.12102 2.33774 5.66769 2.39819 5.28991C2.45863 4.91214 2.53419 4.60236 2.62485 4.36058C2.98752 3.4237 3.63729 2.77393 4.57418 2.41126C4.81595 2.3206 5.12573 2.24504 5.5035 2.1846C5.88128 2.12415 6.33461 2.07882 6.86349 2.0486C7.39238 2.01837 7.82304 2.00326 8.15549 2.00326H12.9835C13.3008 2.00326 13.7239 2.01837 14.2528 2.0486C14.7817 2.07882 15.235 2.12415 15.6128 2.1846C15.9906 2.24504 16.3003 2.3206 16.5421 2.41126C17.479 2.77393 18.1288 3.4237 18.4914 4.36058C18.5821 4.60236 18.6576 4.91214 18.7181 5.28991C18.7785 5.66769 18.8239 6.12102 18.8541 6.6499C18.8843 7.17879 18.8994 7.60945 18.8994 7.94189V12.7472C18.8994 13.0796 18.8843 13.5103 18.8541 14.0392C18.8239 14.5681 18.7785 15.0214 18.7181 15.3992C18.6576 15.777 18.5821 16.0867 18.4914 16.3285C18.1288 17.2352 17.479 17.8849 16.5421 18.2778C16.3003 18.3685 15.9906 18.4441 15.6128 18.5045C15.235 18.5649 14.7817 18.6103 14.2528 18.6405C13.7239 18.6707 13.2932 18.6858 12.9608 18.6858ZM15.9981 6.12857C16.3305 6.12857 16.6101 6.00768 16.8368 5.76591C17.0634 5.52413 17.1768 5.23702 17.1768 4.90458C17.1768 4.57214 17.0559 4.30014 16.8141 4.08858C16.6025 3.84681 16.3305 3.72592 15.9981 3.72592C15.6657 3.72592 15.3786 3.83925 15.1368 4.06592C14.895 4.29258 14.7741 4.57214 14.7741 4.90458C14.7741 5.23702 14.895 5.52413 15.1368 5.76591C15.3786 6.00768 15.6657 6.12857 15.9981 6.12857ZM10.5581 15.5578C12.0088 15.5578 13.2403 15.0516 14.2528 14.0392C15.2652 13.0268 15.7714 11.7952 15.7714 10.3445C15.7714 8.89389 15.2652 7.66234 14.2528 6.6499C13.2403 5.63746 12.0088 5.13124 10.5581 5.13124C9.10748 5.13124 7.86838 5.64502 6.84083 6.67257C5.8435 7.6699 5.34484 8.89389 5.34484 10.3445C5.34484 11.7952 5.85106 13.0268 6.86349 14.0392C7.87593 15.0516 9.10748 15.5578 10.5581 15.5578ZM10.5581 13.7445C9.62126 13.7445 8.82037 13.4121 8.15549 12.7472C7.4906 12.0823 7.15816 11.2814 7.15816 10.3445C7.15816 9.40766 7.4906 8.60678 8.15549 7.94189C8.82037 7.27701 9.62126 6.94457 10.5581 6.94457C11.495 6.94457 12.2959 7.27701 12.9608 7.94189C13.6257 8.60678 13.9581 9.40766 13.9581 10.3445C13.9581 11.2814 13.6257 12.0823 12.9608 12.7472C12.2959 13.4121 11.495 13.7445 10.5581 13.7445Z" fill="white"/>
</svg>
