<svg width="13" height="18" viewBox="0 0 13 18" fill="none" xmlns="http://www.w3.org/2000/svg">
<path d="M6.5 17.125C6.78776 17.125 7.00911 17.0143 7.16406 16.793C7.69531 16.0182 8.2985 15.1439 8.97363 14.1699C9.64876 13.196 10.1302 12.5098 10.418 12.1113C10.7057 11.7129 11.0378 11.2204 11.4141 10.6338C11.7904 10.0472 12.0394 9.63216 12.1611 9.38867C12.2829 9.14518 12.4157 8.83529 12.5596 8.45898C12.7035 8.08268 12.792 7.75619 12.8252 7.47949C12.8584 7.2028 12.875 6.8763 12.875 6.5C12.875 4.72917 12.2552 3.22396 11.0156 1.98438C9.77604 0.744792 8.27083 0.125 6.5 0.125C4.72917 0.125 3.22396 0.744792 1.98438 1.98438C0.744792 3.22396 0.125 4.72917 0.125 6.5C0.125 6.8763 0.141602 7.2028 0.174805 7.47949C0.208008 7.75619 0.296549 8.08268 0.44043 8.45898C0.58431 8.83529 0.717122 9.14518 0.838867 9.38867C0.960612 9.63216 1.20964 10.0472 1.58594 10.6338C1.96224 11.2204 2.29427 11.7129 2.58203 12.1113C2.86979 12.5098 3.35124 13.196 4.02637 14.1699C4.7015 15.1439 5.30469 16.0182 5.83594 16.793C5.99089 17.0143 6.21224 17.125 6.5 17.125ZM6.5 9.15625C5.76953 9.15625 5.13867 8.90169 4.60742 8.39258C4.09831 7.86133 3.84375 7.23047 3.84375 6.5C3.84375 5.76953 4.10384 5.14421 4.62402 4.62402C5.14421 4.10384 5.76953 3.84375 6.5 3.84375C7.23047 3.84375 7.85579 4.10384 8.37598 4.62402C8.89616 5.14421 9.15625 5.76953 9.15625 6.5C9.15625 7.23047 8.89616 7.85579 8.37598 8.37598C7.85579 8.89616 7.23047 9.15625 6.5 9.15625Z" fill="black"/>
</svg>
